<svg xmlns="http://www.w3.org/2000/svg" width="52" height="51.999" viewBox="0 0 52 51.999">
  <g id="rocket" transform="translate(0.001 -0.006)">
    <g id="Group_55" data-name="Group 55" transform="translate(2.356 37.328)">
      <g id="Group_54" data-name="Group 54">
        <path id="Path_1199" data-name="Path 1199" d="M27.9,367.857a1.249,1.249,0,0,0-1.766,0l-2.565,2.565a1.249,1.249,0,1,0,1.766,1.766l2.565-2.565A1.249,1.249,0,0,0,27.9,367.857Z" transform="translate(-23.206 -367.491)" fill="#6824a9"/>
      </g>
    </g>
    <g id="Group_57" data-name="Group 57" transform="translate(0 40.957)">
      <g id="Group_56" data-name="Group 56" transform="translate(0)">
        <path id="Path_1200" data-name="Path 1200" d="M10.681,403.58a1.249,1.249,0,0,0-1.766,0l-8.55,8.55A1.249,1.249,0,1,0,2.131,413.9l8.55-8.55A1.249,1.249,0,0,0,10.681,403.58Z" transform="translate(0 -403.214)" fill="#6824a9"/>
      </g>
    </g>
    <g id="Group_59" data-name="Group 59" transform="translate(7.903 44.585)">
      <g id="Group_58" data-name="Group 58">
        <path id="Path_1201" data-name="Path 1201" d="M84.224,439.3a1.249,1.249,0,0,0-1.766,0l-4.275,4.275a1.249,1.249,0,1,0,1.766,1.766l4.275-4.275A1.249,1.249,0,0,0,84.224,439.3Z" transform="translate(-77.817 -438.938)" fill="#6824a9"/>
      </g>
    </g>
    <g id="Group_61" data-name="Group 61" transform="translate(24.716 11.887)">
      <g id="Group_60" data-name="Group 60">
        <path id="Path_1202" data-name="Path 1202" d="M256.505,119.249a7.7,7.7,0,1,0,0,10.891A7.65,7.65,0,0,0,256.505,119.249Zm-1.766,9.124a5.2,5.2,0,1,1,0-7.358A5.169,5.169,0,0,1,254.739,128.373Z" transform="translate(-243.359 -116.993)" fill="#6824a9"/>
      </g>
    </g>
    <g id="Group_63" data-name="Group 63" transform="translate(1.732 0.006)">
      <g id="Group_62" data-name="Group 62" transform="translate(0 0)">
        <path id="Path_1203" data-name="Path 1203" d="M66.457,1.76a1.249,1.249,0,0,0-.884-.884A25.77,25.77,0,0,0,52.5.822c-.667.172-1.325.375-1.975.6a1.254,1.254,0,0,0-.166.058,25.657,25.657,0,0,0-9.53,6.01l0,0-.021.021c-.011.011-.021.024-.032.036s-.022.022-.032.034l-3.825,4.452A22.489,22.489,0,0,0,17.229,23.23,1.249,1.249,0,0,0,18,25.066l6.941,1.767-1.358,3.689A5.01,5.01,0,0,0,24.74,35.78l6.813,6.813a5.007,5.007,0,0,0,5.259,1.155L40.5,42.391l1.767,6.942A1.249,1.249,0,0,0,44.1,50.1,22.489,22.489,0,0,0,55.3,30.419l4.451-3.825c.012-.01.022-.021.033-.031s.025-.021.036-.033l.021-.021,0,0a25.656,25.656,0,0,0,6.01-9.529,1.311,1.311,0,0,0,.058-.166c.225-.649.428-1.307.6-1.974A25.773,25.773,0,0,0,66.457,1.76ZM20.29,23.072a19.99,19.99,0,0,1,14.392-8.438l-8.532,9.93Zm5.638,8.313,1.162-3.157L28.7,29.839l-2.435,3.9A2.507,2.507,0,0,1,25.928,31.385Zm2.136,4.188,2.45-3.921,1.7,1.7-3.185,3.185ZM30.8,38.3l3.185-3.185,1.7,1.7-3.921,2.45Zm5.153,3.1a2.507,2.507,0,0,1-2.351-.338l3.9-2.435L39.1,40.243Zm11.008,3.378a20.128,20.128,0,0,1-2.694,2.261L42.77,41.183l9.93-8.532A20.028,20.028,0,0,1,46.956,44.783ZM58.078,24.736l-16.646,14.3L28.295,25.9,38.4,14.141l.029-.034L42.6,9.255a23.171,23.171,0,0,1,7.942-5.178L63.256,16.794A23.166,23.166,0,0,1,58.078,24.736Zm6.037-10.616-10.9-10.9a23.273,23.273,0,0,1,11.009-.107A23.274,23.274,0,0,1,64.115,14.121Z" transform="translate(-17.06 -0.006)" fill="#6824a9"/>
      </g>
    </g>
  </g>
</svg>
