<svg xmlns="http://www.w3.org/2000/svg" width="48.6" height="48.6" viewBox="0 0 48.6 48.6">
  <g id="product" transform="translate(0.3 0.3)">
    <g id="Group_7" data-name="Group 7" transform="translate(17 15)">
      <g id="Group_6" data-name="Group 6">
        <rect id="Rectangle_5" data-name="Rectangle 5" width="9" height="2" fill="#6824a9" stroke="#6824a9" stroke-width="0.6"/>
      </g>
    </g>
    <g id="Group_9" data-name="Group 9">
      <g id="Group_8" data-name="Group 8">
        <path id="Path_1" data-name="Path 1" d="M43,0H5A5.006,5.006,0,0,0,0,5V43a5.006,5.006,0,0,0,5,5H21V46H5a3,3,0,0,1-3-3V5A3,3,0,0,1,5,2H43a3,3,0,0,1,3,3V22h2V5A5.006,5.006,0,0,0,43,0Z" fill="#6824a9" stroke="#6824a9" stroke-width="0.6"/>
      </g>
    </g>
    <g id="Group_11" data-name="Group 11" transform="translate(30 4)">
      <g id="Group_10" data-name="Group 10">
        <rect id="Rectangle_6" data-name="Rectangle 6" width="2" height="11" fill="#6824a9" stroke="#6824a9" stroke-width="0.6"/>
      </g>
    </g>
    <g id="Group_13" data-name="Group 13" transform="translate(16 4)">
      <g id="Group_12" data-name="Group 12">
        <path id="Path_2" data-name="Path 2" d="M172.667,58.667h0v-16h-2v16a2,2,0,0,0,2,2h2v-2Z" transform="translate(-170.667 -42.667)" fill="#6824a9" stroke="#6824a9" stroke-width="0.6"/>
      </g>
    </g>
    <g id="Group_15" data-name="Group 15" transform="translate(6 34)">
      <g id="Group_14" data-name="Group 14">
        <path id="Path_3" data-name="Path 3" d="M71,362.667H65a1,1,0,0,0-1,1v6a1,1,0,0,0,1,1h6a1,1,0,0,0,1-1v-6A1,1,0,0,0,71,362.667Zm-1,6H66v-4h4Z" transform="translate(-64 -362.667)" fill="#6824a9" stroke="#6824a9" stroke-width="0.6"/>
      </g>
    </g>
    <g id="Group_17" data-name="Group 17" transform="translate(18 18)">
      <g id="Group_16" data-name="Group 16">
        <path id="Path_4" data-name="Path 4" d="M221,203h-3.754c-.055-.139-.112-.277-.174-.416l2.656-2.655a1,1,0,0,0,0-1.414l-4.243-4.243a1.029,1.029,0,0,0-1.414,0l-2.655,2.656c-.139-.061-.277-.119-.416-.175V193a1,1,0,0,0-1-1h-6a1,1,0,0,0-1,1v3.753c-.139.056-.277.114-.416.175l-2.655-2.656a1.029,1.029,0,0,0-1.414,0l-4.243,4.243a1,1,0,0,0,0,1.414l2.656,2.655c-.062.139-.119.277-.174.416H193a1,1,0,0,0-1,1v6a1,1,0,0,0,1,1h3.754c.055.139.112.277.174.416l-2.656,2.655a1,1,0,0,0,0,1.414l4.243,4.243a1,1,0,0,0,1.414,0l2.655-2.656c.139.062.277.119.416.174V221a1,1,0,0,0,1,1h6a1,1,0,0,0,1-1v-3.754c.139-.055.277-.112.416-.174l2.655,2.656a1,1,0,0,0,1.414,0l4.243-4.243a1,1,0,0,0,0-1.414l-2.656-2.655c.062-.139.119-.277.174-.416H221a1,1,0,0,0,1-1v-6A1,1,0,0,0,221,203Zm-1,6H216.54a1,1,0,0,0-.954.7,9.052,9.052,0,0,1-.61,1.459,1,1,0,0,0,.179,1.17l2.45,2.45-2.828,2.828-2.45-2.45a1,1,0,0,0-1.17-.179,9.052,9.052,0,0,1-1.459.61,1,1,0,0,0-.7.954V220h-4v-3.457a1,1,0,0,0-.7-.954,9.051,9.051,0,0,1-1.459-.61,1,1,0,0,0-1.17.179l-2.45,2.45-2.828-2.828,2.45-2.45a1,1,0,0,0,.179-1.17,9.05,9.05,0,0,1-.61-1.459,1,1,0,0,0-.954-.7H194v-4h3.458a1,1,0,0,0,.954-.7,9.059,9.059,0,0,1,.61-1.459,1,1,0,0,0-.179-1.17l-2.45-2.45,2.828-2.828,2.45,2.45a1,1,0,0,0,1.17.179,8.941,8.941,0,0,1,1.459-.61,1,1,0,0,0,.7-.954V194h4v3.458a1,1,0,0,0,.7.954,8.957,8.957,0,0,1,1.459.61,1,1,0,0,0,1.17-.179l2.45-2.45,2.828,2.828-2.45,2.45a1,1,0,0,0-.179,1.17,9.052,9.052,0,0,1,.61,1.459,1,1,0,0,0,.954.7H220Z" transform="translate(-191.998 -191.999)" fill="#6824a9" stroke="#6824a9" stroke-width="0.6"/>
      </g>
    </g>
    <g id="Group_19" data-name="Group 19" transform="translate(28 28)">
      <g id="Group_18" data-name="Group 18">
        <path id="Path_5" data-name="Path 5" d="M303.667,298.667a5,5,0,1,0,5,5A5,5,0,0,0,303.667,298.667Zm0,8a3,3,0,1,1,3-3A3,3,0,0,1,303.667,306.667Z" transform="translate(-298.667 -298.667)" fill="#6824a9" stroke="#6824a9" stroke-width="0.6"/>
      </g>
    </g>
  </g>
</svg>
