<svg xmlns="http://www.w3.org/2000/svg" width="48.6" height="48.6" viewBox="0 0 48.6 48.6">
  <g id="ux" transform="translate(0.3 0.3)">
    <g id="Group_21" data-name="Group 21" transform="translate(25.5 9.75)">
      <g id="Group_20" data-name="Group 20">
        <path id="Path_6" data-name="Path 6" d="M280.25,104h-7.5a.75.75,0,0,0-.75.75v7.5a.75.75,0,0,0,.75.75h7.5a.75.75,0,0,0,.75-.75v-7.5A.75.75,0,0,0,280.25,104Zm-6.75,7.5v-4.94l4.94,4.94Zm6-1.061-4.939-4.939H279.5Z" transform="translate(-272 -104)" fill="#6824a9" stroke="#6824a9" stroke-width="0.6"/>
      </g>
    </g>
    <g id="Group_23" data-name="Group 23" transform="translate(25.5 20.25)">
      <g id="Group_22" data-name="Group 22">
        <path id="Path_7" data-name="Path 7" d="M280.25,216h-7.5a.75.75,0,0,0-.75.75v7.5a.75.75,0,0,0,.75.75h7.5a.75.75,0,0,0,.75-.75v-7.5A.75.75,0,0,0,280.25,216Zm-6.75,7.5v-4.939l4.939,4.939Zm6-1.061-4.94-4.939h4.94Z" transform="translate(-272 -216)" fill="#6824a9" stroke="#6824a9" stroke-width="0.6"/>
      </g>
    </g>
    <g id="Group_25" data-name="Group 25" transform="translate(25.5 30.75)">
      <g id="Group_24" data-name="Group 24">
        <rect id="Rectangle_7" data-name="Rectangle 7" width="6" height="1.5" fill="#6824a9" stroke="#6824a9" stroke-width="0.6"/>
      </g>
    </g>
    <g id="Group_27" data-name="Group 27" transform="translate(33 30.75)">
      <g id="Group_26" data-name="Group 26">
        <rect id="Rectangle_8" data-name="Rectangle 8" width="1.5" height="1.5" fill="#6824a9" stroke="#6824a9" stroke-width="0.6"/>
      </g>
    </g>
    <g id="Group_29" data-name="Group 29" transform="translate(25.5 33.75)">
      <g id="Group_28" data-name="Group 28">
        <rect id="Rectangle_9" data-name="Rectangle 9" width="9" height="1.5" fill="#6824a9" stroke="#6824a9" stroke-width="0.6"/>
      </g>
    </g>
    <g id="Group_31" data-name="Group 31" transform="translate(25.5 36.75)">
      <g id="Group_30" data-name="Group 30">
        <rect id="Rectangle_10" data-name="Rectangle 10" width="9" height="1.5" fill="#6824a9" stroke="#6824a9" stroke-width="0.6"/>
      </g>
    </g>
    <g id="Group_33" data-name="Group 33" transform="translate(12.75 17.25)">
      <g id="Group_32" data-name="Group 32">
        <rect id="Rectangle_11" data-name="Rectangle 11" width="7.5" height="1.5" fill="#6824a9" stroke="#6824a9" stroke-width="0.6"/>
      </g>
    </g>
    <g id="Group_35" data-name="Group 35" transform="translate(12.75 23.25)">
      <g id="Group_34" data-name="Group 34">
        <rect id="Rectangle_12" data-name="Rectangle 12" width="7.5" height="1.5" fill="#6824a9" stroke="#6824a9" stroke-width="0.6"/>
      </g>
    </g>
    <g id="Group_37" data-name="Group 37" transform="translate(12.75 29.25)">
      <g id="Group_36" data-name="Group 36">
        <rect id="Rectangle_13" data-name="Rectangle 13" width="7.5" height="1.5" fill="#6824a9" stroke="#6824a9" stroke-width="0.6"/>
      </g>
    </g>
    <g id="Group_39" data-name="Group 39">
      <g id="Group_38" data-name="Group 38">
        <path id="Path_8" data-name="Path 8" d="M43.5,5.25a.75.75,0,0,0-.75.75V9h-4.5V1.5A1.5,1.5,0,0,0,36.75,0H11.25a1.5,1.5,0,0,0-1.5,1.5V9H5.25V6a.75.75,0,0,0-.75-.75c-.045,0-4.5.068-4.5,6V40.5c0,2.86,2.85,4.184,4.35,4.485A.7.7,0,0,0,4.5,45H9.75v1.5a1.5,1.5,0,0,0,1.5,1.5h25.5a1.5,1.5,0,0,0,1.5-1.5V45H43.5a.7.7,0,0,0,.15-.015c1.5-.3,4.35-1.625,4.35-4.485V11.25C48,5.318,43.545,5.25,43.5,5.25Zm-42,6c0-3.06,1.35-4.039,2.25-4.35V36.172A6.585,6.585,0,0,0,1.5,37.39ZM9.75,43.5H4.582c-.448-.107-3.082-.832-3.082-3,0-2.34,3.023-2.989,3.15-3.015a.75.75,0,0,0,.6-.735V10.5h4.5Zm1.5-35.25h8.636L11.25,13.645Zm10.5.6v5.4H13.112Zm-10.5,6.9h10.5v4.5H11.25Zm0,6h10.5v4.5H11.25Zm0,6h10.5v4.5H11.25Zm0,6h8.83l-8.83,6.068Zm10.5.672V40.5H12.906Zm15,12.078H11.25V42h25.5Zm0-6H23.25V8.25h13.5Zm0-33.75H11.25V1.5h25.5ZM43.419,43.5H38.25v-33h4.5V36.75a.75.75,0,0,0,.6.735c.035.007,3.15.657,3.15,3.015C46.5,42.68,43.882,43.391,43.419,43.5ZM46.5,37.39a6.585,6.585,0,0,0-2.25-1.219V6.9c.89.311,2.25,1.292,2.25,4.35Z" fill="#6824a9" stroke="#6824a9" stroke-width="0.6"/>
      </g>
    </g>
    <g id="Group_41" data-name="Group 41" transform="translate(18.75 3.75)">
      <g id="Group_40" data-name="Group 40">
        <rect id="Rectangle_14" data-name="Rectangle 14" width="6" height="1.5" fill="#6824a9" stroke="#6824a9" stroke-width="0.6"/>
      </g>
    </g>
    <g id="Group_43" data-name="Group 43" transform="translate(26.25 3.75)">
      <g id="Group_42" data-name="Group 42">
        <rect id="Rectangle_15" data-name="Rectangle 15" width="1.5" height="1.5" fill="#6824a9" stroke="#6824a9" stroke-width="0.6"/>
      </g>
    </g>
    <g id="Group_45" data-name="Group 45" transform="translate(29.25 3.75)">
      <g id="Group_44" data-name="Group 44">
        <rect id="Rectangle_16" data-name="Rectangle 16" width="1.5" height="1.5" fill="#6824a9" stroke="#6824a9" stroke-width="0.6"/>
      </g>
    </g>
  </g>
</svg>
